<svg xmlns="http://www.w3.org/2000/svg" style="display: none;">
   
    <symbol id="switch-bg" viewBox="0 0 64 32">
        <rect width="64" height="32" rx="16" fill="currentColor"/>
    </symbol>
    
  
    <symbol id="switch-circle" viewBox="0 0 28 28">
        <circle cx="14" cy="14" r="14" fill="currentColor"/>
    </symbol>
    

    <symbol id="icon-close" viewBox="0 0 24 24">
        <path d="M19 6.41L17.59 5 12 10.59 6.41 5 5 6.41 10.59 12 5 17.59 6.41 19 12 13.41 17.59 19 19 17.59 13.41 12z" fill="currentColor"/>
    </symbol>

    <symbol id="icon-Ellipse-1" viewBox="0 0 22 32">
        <path d="M0 30.669c5.651-2.469 9.6-8.108 9.6-14.669s-3.949-12.2-9.6-14.669c1.96-0.856 4.124-1.331 6.4-1.331 8.837 0 16 7.163 16 16s-7.163 16-16 16c-2.276 0-4.44-0.475-6.4-1.331z"></path>
    </symbol>
</svg> 