<svg xmlns="http://www.w3.org/2000/svg" style="display: none;">
   
    <symbol id="switch-bg" viewBox="0 0 64 32">
        <rect width="64" height="32" rx="16" fill="currentColor"/>
    </symbol>
    
  
    <symbol id="switch-circle" viewBox="0 0 28 28">
        <circle cx="14" cy="14" r="14" fill="currentColor"/>
    </symbol>
    

    <symbol id="icon-close" viewBox="0 0 24 24">
        <path d="M19 6.41L17.59 5 12 10.59 6.41 5 5 6.41 10.59 12 5 17.59 6.41 19 12 13.41 17.59 19 19 17.59 13.41 12z" fill="currentColor"/>
    </symbol>

    <symbol id="icon-Ellipse-1" viewBox="0 0 22 32">
        <path d="M0 30.669c5.651-2.469 9.6-8.108 9.6-14.669s-3.949-12.2-9.6-14.669c1.96-0.856 4.124-1.331 6.4-1.331 8.837 0 16 7.163 16 16s-7.163 16-16 16c-2.276 0-4.44-0.475-6.4-1.331z"></path>
    </symbol>

      <symbol id="icon-decor-bg-1" viewBox="0 0 15 32">
      <path d="M13.089 27.531h-.325a.045.045 0 0 1-.045-.045v-.325c0-.025.02-.045.045-.045h.325c.025 0 .045.02.045.045v.325c0 .025-.02.045-.045.045zM11.736 22.39h-.325a.045.045 0 0 1-.045-.045v-.325c0-.025.02-.045.045-.045h.325c.025 0 .045.02.045.045v.325c0 .025-.02.045-.045.045zM9.996 24.946h-.117a.045.045 0 0 1-.045-.045v-.117c0-.025.02-.045.045-.045h.117c.025 0 .045.02.045.045v.117c0 .025-.02.045-.045.045zM14.409 25.777h-.117a.045.045 0 0 1-.045-.045v-.117c0-.025.02-.045.045-.045h.117c.025 0 .045.02.045.045v.117c0 .025-.02.045-.045.045zM8.725 27.94H8.4a.045.045 0 0 1-.045-.045v-.325c0-.025.02-.045.045-.045h.325c.025 0 .045.02.045.045v.325c0 .025-.02.045-.045.045zM6.909 24.004h-.117a.045.045 0 0 1-.045-.045v-.117c0-.025.02-.045.045-.045h.117c.025 0 .045.02.045.045v.117c0 .025-.02.045-.045.045zM11.825 6.007h-.371a.045.045 0 0 1-.045-.045v-.371c0-.025.02-.045.045-.045h.371c.025 0 .045.02.045.045v.371c0 .025-.02.045-.045.045zM9.985.962h-.371a.045.045 0 0 1-.045-.045V.546c0-.025.02-.045.045-.045h.371c.025 0 .045.02.045.045v.371c0 .025-.02.045-.045.045zM13.985 7.875h-.602a.045.045 0 0 1-.045-.045v-.602c0-.025.02-.045.045-.045h.602c.025 0 .045.02.045.045v.602c0 .025-.02.045-.045.045zM8.349 3.595h-.14a.045.045 0 0 1-.045-.045v-.14c0-.025.02-.045.045-.045h.14c.025 0 .045.02.045.045v.14c0 .025-.02.045-.045.045zM14.758 4.516h-.14a.045.045 0 0 1-.045-.045v-.14c0-.025.02-.045.045-.045h.14c.025 0 .045.02.045.045v.14c0 .025-.02.045-.045.045zM4.14 11.11H4a.045.045 0 0 1-.045-.045v-.14c0-.025.02-.045.045-.045h.14c.025 0 .045.02.045.045v.14c0 .025-.02.045-.045.045zM6.94 6.916h-.371a.045.045 0 0 1-.045-.045V6.5c0-.025.02-.045.045-.045h.371c.025 0 .045.02.045.045v.371c0 .025-.02.045-.045.045zM5.076 2.549h-.14a.045.045 0 0 1-.045-.045v-.14c0-.025.02-.045.045-.045h.14c.025 0 .045.02.045.045v.14c0 .025-.02.045-.045.045z"/>
    </symbol>
</svg> 