<!-- Generated by IcoMoon.io -->
<svg class="about-me_bg-svg" version="1.1" xmlns="http://www.w3.org/2000/svg" width="1495" height="1024" viewBox="0 0 1495 1024">
    <defs>
        <filter id="blurEffect">
            <feGaussianBlur in="SourceGraphic" stdDeviation="1" />
        </filter>
    </defs>
    <g id="icomoon-ignore">
</g>
    <path d="M179.569 563.351h34.559c2.338 0 4.236 1.895 4.236 4.236v34.559c0 2.338-1.895 4.236-4.236 4.236h-34.559c-2.338 0-4.236-1.895-4.236-4.236v-34.559c0-2.338 1.895-4.236 4.236-4.236z" filter="url(#blurEffect)"></path>
    <path d="M457.18 212.666h56.073c2.338 0 4.236 1.895 4.236 4.236v56.073c0 2.338-1.895 4.236-4.236 4.236h-56.073c-2.338 0-4.236-1.895-4.236-4.236v-56.073c0-2.338 1.895-4.236 4.236-4.236z" filter="url(#blurEffect)"></path>
    <path d="M43.553 37.69h25.622c2.338 0 4.236 1.895 4.236 4.236v25.622c0 2.338-1.895 4.236-4.236 4.236h-25.622c-2.338 0-4.236-1.895-4.236-4.236v-25.622c0-2.338 1.895-4.236 4.236-4.236z" filter="url(#blurEffect)"></path>
    <path d="M710.444 792.256h13.045c2.338 0 4.236 1.895 4.236 4.236v13.045c0 2.338-1.895 4.236-4.236 4.236h-13.045c-2.338 0-4.236-1.895-4.236-4.236v-13.045c0-2.338 1.895-4.236 4.236-4.236z" filter="url(#blurEffect)"></path>
    <path d="M4.233 724.072h13.045c2.338 0 4.236 1.895 4.236 4.236v13.045c0 2.338-1.895 4.236-4.236 4.236h-13.045c-2.338 0-4.236-1.895-4.236-4.236v-13.045c0-2.338 1.895-4.236 4.236-4.236z" filter="url(#blurEffect)"></path>
    <path d="M999.159 132.086h13.045c2.338 0 4.236 1.895 4.236 4.236v13.045c0 2.338-1.895 4.236-4.236 4.236h-13.045c-2.338 0-4.236-1.895-4.236-4.236v-13.045c0-2.338 1.895-4.236 4.236-4.236z" filter="url(#blurEffect)"></path>
    <path d="M1477.722 0.798h13.045c2.338 0 4.236 1.895 4.236 4.236v13.045c0 2.338-1.895 4.236-4.236 4.236h-13.045c-2.338 0-4.236-1.895-4.236-4.236v-13.045c0-2.338 1.895-4.236 4.236-4.236z" filter="url(#blurEffect)"></path>
    <path d="M920.51 353.27c0-2.338 1.894-4.236 4.235-4.236h34.56c2.338 0 4.235 1.895 4.235 4.236v34.559c0 2.338-1.894 4.237-4.235 4.237h-34.56c-2.338 0-4.235-1.896-4.235-4.237v-34.559z" filter="url(#blurEffect)"></path>
    <path d="M1251.057 1001.684h13.045c2.338 0 4.236 1.895 4.236 4.236v13.045c0 2.338-1.895 4.236-4.236 4.236h-13.045c-2.338 0-4.236-1.895-4.236-4.236v-13.045c0-2.338 1.895-4.236 4.236-4.236z" filter="url(#blurEffect)"></path>
</svg>