<svg aria-hidden="true" style="position:absolute;width:0;height:0;overflow:hidden" xmlns="http://www.w3.org/2000/svg">
    <defs>
        <symbol id="group-67" viewBox="0 0 41 32">
            <path
                d="M7.817 16.445h.95a.116.116 0 0 0 .116-.116v-.95a.116.116 0 0 0-.116-.116h-.95a.116.116 0 0 0-.116.116v.95c0 .064.052.116.116.116zM18.116 1.198h.95a.116.116 0 0 0 .116-.116v-.95a.116.116 0 0 0-.116-.116h-.95A.116.116 0 0 0 18 .132v.95c0 .064.052.116.116.116zm-2.094 28.874h1.541a.116.116 0 0 0 .116-.116v-1.541a.116.116 0 0 0-.116-.116h-1.541a.116.116 0 0 0-.116.116v1.541c0 .064.052.116.116.116zM2.753 20.062h1.541a.116.116 0 0 0 .116-.116v-1.541a.116.116 0 0 0-.116-.116H2.753a.116.116 0 0 0-.116.116v1.541c0 .064.052.116.116.116zm13.85-10.959h.358a.116.116 0 0 0 .116-.116v-.358a.116.116 0 0 0-.116-.116h-.358a.116.116 0 0 0-.116.116v.358c0 .064.052.116.116.116zM.192 11.464h.359a.116.116 0 0 0 .116-.116v-.358a.116.116 0 0 0-.116-.116H.193a.116.116 0 0 0-.116.116v.358c0 .064.052.116.116.116zM27.38 28.348h.358a.116.116 0 0 0 .116-.116v-.358a.116.116 0 0 0-.116-.116h-.358a.116.116 0 0 0-.116.116v.358c0 .064.052.116.116.116zm13.152 3.608h.358a.116.116 0 0 0 .116-.116v-.358a.116.116 0 0 0-.116-.116h-.358a.116.116 0 0 0-.116.116v.358c0 .064.052.116.116.116zm-20.32-14.347h.95a.116.116 0 0 0 .116-.116v-.95a.116.116 0 0 0-.116-.116h-.95a.116.116 0 0 0-.116.116v.95c0 .064.052.116.116.116zm4.772-11.183h.358a.116.116 0 0 0 .116-.116v-.359a.116.116 0 0 0-.116-.116h-.358a.116.116 0 0 0-.116.116v.359c0 .064.052.116.116.116z" />
        </symbol>
    </defs>
</svg>