<svg aria-hidden="true" style="position:absolute;width:0;height:0;overflow:hidden" xmlns="http://www.w3.org/2000/svg">
    <defs>
        <symbol id="button-down" viewBox="0 0 32 32">
            <path stroke-linecap="round" stroke-width="2" d="m22 13-6 6-6-6" />
        </symbol>
        <symbol id="button-up" viewBox="0 0 32 32">
            <path stroke-linecap="round" stroke-width="2" d="m22 19-6-6-6 6" />
        </symbol>
        <symbol id="group-67" viewBox="0 0 41 32">
            <path
                d="M7.817 16.445h.95a.116.116 0 0 0 .116-.116v-.95a.116.116 0 0 0-.116-.116h-.95a.116.116 0 0 0-.116.116v.95c0 .064.052.116.116.116zM18.116 1.198h.95a.116.116 0 0 0 .116-.116v-.95a.116.116 0 0 0-.116-.116h-.95A.116.116 0 0 0 18 .132v.95c0 .064.052.116.116.116zM16.022 30.072h1.541a.116.116 0 0 0 .116-.116v-1.541a.116.116 0 0 0-.116-.116h-1.541a.116.116 0 0 0-.116.116v1.541c0 .064.052.116.116.116zM2.753 20.062h1.541a.116.116 0 0 0 .116-.116v-1.541a.116.116 0 0 0-.116-.116H2.753a.116.116 0 0 0-.116.116v1.541c0 .064.052.116.116.116zM16.603 9.103h.358a.116.116 0 0 0 .116-.116v-.358a.116.116 0 0 0-.116-.116h-.358a.116.116 0 0 0-.116.116v.358c0 .064.052.116.116.116zM.192 11.464h.359a.116.116 0 0 0 .116-.116v-.358a.116.116 0 0 0-.116-.116H.193a.116.116 0 0 0-.116.116v.358c0 .064.052.116.116.116zM27.38 28.348h.358a.116.116 0 0 0 .116-.116v-.358a.116.116 0 0 0-.116-.116h-.358a.116.116 0 0 0-.116.116v.358c0 .064.052.116.116.116zM40.532 31.956h.358a.116.116 0 0 0 .116-.116v-.358a.116.116 0 0 0-.116-.116h-.358a.116.116 0 0 0-.116.116v.358c0 .064.052.116.116.116zM20.212 17.609h.95a.116.116 0 0 0 .116-.116v-.95a.116.116 0 0 0-.116-.116h-.95a.116.116 0 0 0-.116.116v.95c0 .064.052.116.116.116zM24.984 6.426h.358a.116.116 0 0 0 .116-.116v-.359a.116.116 0 0 0-.116-.116h-.358a.116.116 0 0 0-.116.116v.359c0 .064.052.116.116.116z" />
        </symbol>
    </defs>
</svg>